<mxfile host="Electron" agent="Mozilla/5.0 (Windows NT 10.0; Win64; x64) AppleWebKit/537.36 (KHTML, like Gecko) draw.io/26.0.7 Chrome/128.0.6613.186 Electron/32.2.5 Safari/537.36" version="26.0.7">
  <diagram name="Page-1" id="TnOnONO4hPDciInwzj3U">
    <mxGraphModel dx="2284" dy="836" grid="1" gridSize="10" guides="1" tooltips="1" connect="1" arrows="1" fold="1" page="1" pageScale="1" pageWidth="850" pageHeight="1100" math="0" shadow="0">
      <root>
        <mxCell id="0" />
        <mxCell id="1" parent="0" />
        <mxCell id="WHAP8gvcwwYfGmSwXgSs-3" value="" style="edgeStyle=orthogonalEdgeStyle;rounded=0;orthogonalLoop=1;jettySize=auto;html=1;" edge="1" parent="1" source="WHAP8gvcwwYfGmSwXgSs-1" target="WHAP8gvcwwYfGmSwXgSs-2">
          <mxGeometry relative="1" as="geometry" />
        </mxCell>
        <mxCell id="WHAP8gvcwwYfGmSwXgSs-1" value="start" style="strokeWidth=2;html=1;shape=mxgraph.flowchart.terminator;whiteSpace=wrap;" vertex="1" parent="1">
          <mxGeometry x="210" y="40" width="100" height="60" as="geometry" />
        </mxCell>
        <mxCell id="WHAP8gvcwwYfGmSwXgSs-5" value="" style="edgeStyle=orthogonalEdgeStyle;rounded=0;orthogonalLoop=1;jettySize=auto;html=1;" edge="1" parent="1" source="WHAP8gvcwwYfGmSwXgSs-2" target="WHAP8gvcwwYfGmSwXgSs-4">
          <mxGeometry relative="1" as="geometry" />
        </mxCell>
        <mxCell id="WHAP8gvcwwYfGmSwXgSs-2" value="Declarations&lt;div&gt;string defineWord&lt;/div&gt;&lt;div&gt;&lt;br&gt;&lt;/div&gt;" style="whiteSpace=wrap;html=1;strokeWidth=2;" vertex="1" parent="1">
          <mxGeometry x="200" y="140" width="120" height="60" as="geometry" />
        </mxCell>
        <mxCell id="WHAP8gvcwwYfGmSwXgSs-7" value="" style="edgeStyle=orthogonalEdgeStyle;rounded=0;orthogonalLoop=1;jettySize=auto;html=1;" edge="1" parent="1" source="WHAP8gvcwwYfGmSwXgSs-4" target="WHAP8gvcwwYfGmSwXgSs-6">
          <mxGeometry relative="1" as="geometry" />
        </mxCell>
        <mxCell id="WHAP8gvcwwYfGmSwXgSs-4" value="Input defineWord &quot;Please enter word you would like defined.&quot;" style="shape=parallelogram;perimeter=parallelogramPerimeter;whiteSpace=wrap;html=1;fixedSize=1;strokeWidth=2;" vertex="1" parent="1">
          <mxGeometry x="110" y="230" width="300" height="70" as="geometry" />
        </mxCell>
        <mxCell id="WHAP8gvcwwYfGmSwXgSs-15" value="" style="edgeStyle=orthogonalEdgeStyle;rounded=0;orthogonalLoop=1;jettySize=auto;html=1;" edge="1" parent="1" source="WHAP8gvcwwYfGmSwXgSs-6" target="WHAP8gvcwwYfGmSwXgSs-14">
          <mxGeometry relative="1" as="geometry" />
        </mxCell>
        <mxCell id="WHAP8gvcwwYfGmSwXgSs-6" value="Output randomPage" style="shape=parallelogram;perimeter=parallelogramPerimeter;whiteSpace=wrap;html=1;fixedSize=1;strokeWidth=2;" vertex="1" parent="1">
          <mxGeometry x="170" y="340" width="180" height="90" as="geometry" />
        </mxCell>
        <mxCell id="WHAP8gvcwwYfGmSwXgSs-17" value="" style="edgeStyle=orthogonalEdgeStyle;rounded=0;orthogonalLoop=1;jettySize=auto;html=1;" edge="1" parent="1" source="WHAP8gvcwwYfGmSwXgSs-14" target="WHAP8gvcwwYfGmSwXgSs-16">
          <mxGeometry relative="1" as="geometry" />
        </mxCell>
        <mxCell id="WHAP8gvcwwYfGmSwXgSs-14" value="check first word on page" style="whiteSpace=wrap;html=1;strokeWidth=2;" vertex="1" parent="1">
          <mxGeometry x="200" y="470" width="120" height="60" as="geometry" />
        </mxCell>
        <mxCell id="WHAP8gvcwwYfGmSwXgSs-19" value="" style="edgeStyle=orthogonalEdgeStyle;rounded=0;orthogonalLoop=1;jettySize=auto;html=1;" edge="1" parent="1" source="WHAP8gvcwwYfGmSwXgSs-16" target="WHAP8gvcwwYfGmSwXgSs-18">
          <mxGeometry relative="1" as="geometry" />
        </mxCell>
        <mxCell id="WHAP8gvcwwYfGmSwXgSs-22" value="No" style="edgeLabel;html=1;align=center;verticalAlign=middle;resizable=0;points=[];" vertex="1" connectable="0" parent="WHAP8gvcwwYfGmSwXgSs-19">
          <mxGeometry x="-0.2889" y="-1" relative="1" as="geometry">
            <mxPoint as="offset" />
          </mxGeometry>
        </mxCell>
        <mxCell id="WHAP8gvcwwYfGmSwXgSs-25" value="" style="edgeStyle=orthogonalEdgeStyle;rounded=0;orthogonalLoop=1;jettySize=auto;html=1;" edge="1" parent="1" source="WHAP8gvcwwYfGmSwXgSs-16" target="WHAP8gvcwwYfGmSwXgSs-20">
          <mxGeometry relative="1" as="geometry" />
        </mxCell>
        <mxCell id="WHAP8gvcwwYfGmSwXgSs-26" value="yes" style="edgeLabel;html=1;align=center;verticalAlign=middle;resizable=0;points=[];" vertex="1" connectable="0" parent="WHAP8gvcwwYfGmSwXgSs-25">
          <mxGeometry x="-0.1333" y="-1" relative="1" as="geometry">
            <mxPoint as="offset" />
          </mxGeometry>
        </mxCell>
        <mxCell id="WHAP8gvcwwYfGmSwXgSs-16" value="Is word before defineWord" style="rhombus;whiteSpace=wrap;html=1;strokeWidth=2;" vertex="1" parent="1">
          <mxGeometry x="190" y="560" width="140" height="100" as="geometry" />
        </mxCell>
        <mxCell id="WHAP8gvcwwYfGmSwXgSs-28" style="edgeStyle=orthogonalEdgeStyle;rounded=0;orthogonalLoop=1;jettySize=auto;html=1;exitX=0.5;exitY=1;exitDx=0;exitDy=0;" edge="1" parent="1" source="WHAP8gvcwwYfGmSwXgSs-27">
          <mxGeometry relative="1" as="geometry">
            <mxPoint x="270" y="840" as="targetPoint" />
            <Array as="points">
              <mxPoint x="271" y="730" />
            </Array>
          </mxGeometry>
        </mxCell>
        <mxCell id="WHAP8gvcwwYfGmSwXgSs-18" value="flip forward" style="whiteSpace=wrap;html=1;strokeWidth=2;" vertex="1" parent="1">
          <mxGeometry x="420" y="630" width="120" height="60" as="geometry" />
        </mxCell>
        <mxCell id="WHAP8gvcwwYfGmSwXgSs-29" style="edgeStyle=orthogonalEdgeStyle;rounded=0;orthogonalLoop=1;jettySize=auto;html=1;exitX=0.5;exitY=1;exitDx=0;exitDy=0;entryX=0.5;entryY=0;entryDx=0;entryDy=0;entryPerimeter=0;" edge="1" parent="1" source="WHAP8gvcwwYfGmSwXgSs-20" target="WHAP8gvcwwYfGmSwXgSs-27">
          <mxGeometry relative="1" as="geometry">
            <mxPoint x="270" y="810" as="targetPoint" />
            <Array as="points">
              <mxPoint x="40" y="730" />
              <mxPoint x="271" y="730" />
            </Array>
          </mxGeometry>
        </mxCell>
        <mxCell id="WHAP8gvcwwYfGmSwXgSs-20" value="flip backward" style="whiteSpace=wrap;html=1;strokeWidth=2;" vertex="1" parent="1">
          <mxGeometry x="-20" y="630" width="120" height="60" as="geometry" />
        </mxCell>
        <mxCell id="WHAP8gvcwwYfGmSwXgSs-36" value="" style="edgeStyle=orthogonalEdgeStyle;rounded=0;orthogonalLoop=1;jettySize=auto;html=1;" edge="1" parent="1" source="WHAP8gvcwwYfGmSwXgSs-27" target="WHAP8gvcwwYfGmSwXgSs-35">
          <mxGeometry relative="1" as="geometry" />
        </mxCell>
        <mxCell id="WHAP8gvcwwYfGmSwXgSs-42" value="Yes" style="edgeLabel;html=1;align=center;verticalAlign=middle;resizable=0;points=[];" vertex="1" connectable="0" parent="WHAP8gvcwwYfGmSwXgSs-36">
          <mxGeometry x="-0.1" relative="1" as="geometry">
            <mxPoint as="offset" />
          </mxGeometry>
        </mxCell>
        <mxCell id="WHAP8gvcwwYfGmSwXgSs-40" style="edgeStyle=orthogonalEdgeStyle;rounded=0;orthogonalLoop=1;jettySize=auto;html=1;exitX=0.5;exitY=1;exitDx=0;exitDy=0;" edge="1" parent="1" source="WHAP8gvcwwYfGmSwXgSs-35" target="WHAP8gvcwwYfGmSwXgSs-39">
          <mxGeometry relative="1" as="geometry" />
        </mxCell>
        <mxCell id="WHAP8gvcwwYfGmSwXgSs-35" value="output definition" style="shape=parallelogram;perimeter=parallelogramPerimeter;whiteSpace=wrap;html=1;fixedSize=1;strokeWidth=2;" vertex="1" parent="1">
          <mxGeometry x="210" y="940" width="120" height="60" as="geometry" />
        </mxCell>
        <mxCell id="WHAP8gvcwwYfGmSwXgSs-37" value="" style="edgeStyle=orthogonalEdgeStyle;rounded=0;orthogonalLoop=1;jettySize=auto;html=1;exitX=0.5;exitY=1;exitDx=0;exitDy=0;" edge="1" parent="1" source="WHAP8gvcwwYfGmSwXgSs-18" target="WHAP8gvcwwYfGmSwXgSs-27">
          <mxGeometry relative="1" as="geometry">
            <mxPoint x="270" y="840" as="targetPoint" />
            <mxPoint x="480" y="690" as="sourcePoint" />
            <Array as="points">
              <mxPoint x="480" y="730" />
            </Array>
          </mxGeometry>
        </mxCell>
        <mxCell id="WHAP8gvcwwYfGmSwXgSs-38" style="edgeStyle=orthogonalEdgeStyle;rounded=0;orthogonalLoop=1;jettySize=auto;html=1;exitX=1;exitY=0.5;exitDx=0;exitDy=0;exitPerimeter=0;" edge="1" parent="1" source="WHAP8gvcwwYfGmSwXgSs-27">
          <mxGeometry relative="1" as="geometry">
            <mxPoint x="260" y="450" as="targetPoint" />
            <Array as="points">
              <mxPoint x="621" y="825" />
            </Array>
          </mxGeometry>
        </mxCell>
        <mxCell id="WHAP8gvcwwYfGmSwXgSs-41" value="No" style="edgeLabel;html=1;align=center;verticalAlign=middle;resizable=0;points=[];" vertex="1" connectable="0" parent="WHAP8gvcwwYfGmSwXgSs-38">
          <mxGeometry x="-0.7935" y="-1" relative="1" as="geometry">
            <mxPoint as="offset" />
          </mxGeometry>
        </mxCell>
        <mxCell id="WHAP8gvcwwYfGmSwXgSs-27" value="is defineWord on page?" style="strokeWidth=2;html=1;shape=mxgraph.flowchart.decision;whiteSpace=wrap;" vertex="1" parent="1">
          <mxGeometry x="200" y="750" width="140" height="150" as="geometry" />
        </mxCell>
        <mxCell id="WHAP8gvcwwYfGmSwXgSs-39" value="end" style="strokeWidth=2;html=1;shape=mxgraph.flowchart.terminator;whiteSpace=wrap;" vertex="1" parent="1">
          <mxGeometry x="220" y="1020" width="100" height="60" as="geometry" />
        </mxCell>
      </root>
    </mxGraphModel>
  </diagram>
</mxfile>
